<mxfile host="app.diagrams.net" agent="Mozilla/5.0 (Windows NT 10.0; Win64; x64; rv:130.0) Gecko/20100101 Firefox/130.0" version="24.7.10">
  <diagram name="Page-1" id="hPOh9uv4Xi-a1cSwoiG5">
    <mxGraphModel dx="2449" dy="1523" grid="0" gridSize="10" guides="1" tooltips="1" connect="1" arrows="1" fold="1" page="0" pageScale="1" pageWidth="850" pageHeight="1100" math="0" shadow="0">
      <root>
        <mxCell id="0" />
        <mxCell id="1" parent="0" />
        <mxCell id="TidTo2rOgOH8y78XN5G_-71" value="" style="group;fontSize=30;" parent="1" vertex="1" connectable="0">
          <mxGeometry x="-317" y="-137" width="1511" height="840" as="geometry" />
        </mxCell>
        <mxCell id="TidTo2rOgOH8y78XN5G_-4" value="" style="rounded=0;whiteSpace=wrap;html=1;" parent="TidTo2rOgOH8y78XN5G_-71" vertex="1">
          <mxGeometry width="1472" height="815.58" as="geometry" />
        </mxCell>
        <mxCell id="TidTo2rOgOH8y78XN5G_-7" value="" style="line;strokeWidth=2;html=1;" parent="TidTo2rOgOH8y78XN5G_-71" vertex="1">
          <mxGeometry x="3.01" y="68.25" width="1466.99" height="17.06" as="geometry" />
        </mxCell>
        <mxCell id="TidTo2rOgOH8y78XN5G_-9" value="Secret Recipe" style="text;strokeColor=none;fillColor=none;html=1;fontSize=40;fontStyle=1;verticalAlign=middle;align=center;" parent="TidTo2rOgOH8y78XN5G_-71" vertex="1">
          <mxGeometry x="700.9654568585696" y="9.58072349078059" width="150.27274783946424" height="68.2492969690474" as="geometry" />
        </mxCell>
        <mxCell id="TidTo2rOgOH8y78XN5G_-65" value="" style="group" parent="TidTo2rOgOH8y78XN5G_-71" vertex="1" connectable="0">
          <mxGeometry x="107.2" y="465.09" width="1337.8" height="336.71" as="geometry" />
        </mxCell>
        <mxCell id="TidTo2rOgOH8y78XN5G_-77" value="" style="group" parent="TidTo2rOgOH8y78XN5G_-65" vertex="1" connectable="0">
          <mxGeometry width="1337.8" height="336.7099999999999" as="geometry" />
        </mxCell>
        <mxCell id="TidTo2rOgOH8y78XN5G_-61" value="" style="shape=ext;double=1;rounded=1;whiteSpace=wrap;html=1;" parent="TidTo2rOgOH8y78XN5G_-77" vertex="1">
          <mxGeometry width="1337.8" height="106.36341200975309" as="geometry" />
        </mxCell>
        <mxCell id="TidTo2rOgOH8y78XN5G_-62" value="" style="shape=ext;double=1;rounded=1;whiteSpace=wrap;html=1;" parent="TidTo2rOgOH8y78XN5G_-77" vertex="1">
          <mxGeometry y="115.33782489807606" width="1337.8" height="106.36341200975309" as="geometry" />
        </mxCell>
        <mxCell id="TidTo2rOgOH8y78XN5G_-63" value="" style="shape=ext;double=1;rounded=1;whiteSpace=wrap;html=1;" parent="TidTo2rOgOH8y78XN5G_-77" vertex="1">
          <mxGeometry y="230.34658799024683" width="1337.8" height="106.36341200975309" as="geometry" />
        </mxCell>
        <mxCell id="TidTo2rOgOH8y78XN5G_-74" value="Food Image" style="text;strokeColor=none;fillColor=none;html=1;fontSize=24;fontStyle=1;verticalAlign=middle;align=center;" parent="TidTo2rOgOH8y78XN5G_-77" vertex="1">
          <mxGeometry x="207.58965517241387" y="32.13728135020742" width="922.6206896551723" height="47.650912293158" as="geometry" />
        </mxCell>
        <mxCell id="TidTo2rOgOH8y78XN5G_-73" value="Food Image" style="text;strokeColor=none;fillColor=none;html=1;fontSize=24;fontStyle=1;verticalAlign=middle;align=center;" parent="TidTo2rOgOH8y78XN5G_-77" vertex="1">
          <mxGeometry x="207.58965517241387" y="144.53387072169386" width="922.6206896551723" height="47.650912293158" as="geometry" />
        </mxCell>
        <mxCell id="TidTo2rOgOH8y78XN5G_-72" value="Food Image" style="text;strokeColor=none;fillColor=none;html=1;fontSize=24;fontStyle=1;verticalAlign=middle;align=center;" parent="TidTo2rOgOH8y78XN5G_-77" vertex="1">
          <mxGeometry x="207.58965517241387" y="259.7061257342568" width="922.6206896551723" height="47.650912293158" as="geometry" />
        </mxCell>
        <mxCell id="G1v5_FvtIPSsT47ESoxH-36" value="" style="group" vertex="1" connectable="0" parent="TidTo2rOgOH8y78XN5G_-77">
          <mxGeometry x="22.799999999999997" y="16.91" width="1297.2" height="73" as="geometry" />
        </mxCell>
        <mxCell id="G1v5_FvtIPSsT47ESoxH-33" value="Food Title" style="text;strokeColor=none;align=center;fillColor=none;html=1;verticalAlign=middle;whiteSpace=wrap;rounded=0;fontSize=24;" vertex="1" parent="G1v5_FvtIPSsT47ESoxH-36">
          <mxGeometry y="4" width="126.2" height="30" as="geometry" />
        </mxCell>
        <mxCell id="G1v5_FvtIPSsT47ESoxH-34" value="Description" style="text;strokeColor=none;align=center;fillColor=none;html=1;verticalAlign=middle;whiteSpace=wrap;rounded=0;fontSize=24;" vertex="1" parent="G1v5_FvtIPSsT47ESoxH-36">
          <mxGeometry x="7" y="43" width="126.2" height="30" as="geometry" />
        </mxCell>
        <mxCell id="G1v5_FvtIPSsT47ESoxH-35" value="Cost" style="text;strokeColor=none;align=center;fillColor=none;html=1;verticalAlign=middle;whiteSpace=wrap;rounded=0;fontSize=24;" vertex="1" parent="G1v5_FvtIPSsT47ESoxH-36">
          <mxGeometry x="1222" width="75.2" height="30" as="geometry" />
        </mxCell>
        <mxCell id="G1v5_FvtIPSsT47ESoxH-38" value="" style="group" vertex="1" connectable="0" parent="TidTo2rOgOH8y78XN5G_-77">
          <mxGeometry x="22.799999999999997" y="128.91" width="1297.2" height="73" as="geometry" />
        </mxCell>
        <mxCell id="G1v5_FvtIPSsT47ESoxH-39" value="Food Title" style="text;strokeColor=none;align=center;fillColor=none;html=1;verticalAlign=middle;whiteSpace=wrap;rounded=0;fontSize=24;" vertex="1" parent="G1v5_FvtIPSsT47ESoxH-38">
          <mxGeometry y="4" width="126.2" height="30" as="geometry" />
        </mxCell>
        <mxCell id="G1v5_FvtIPSsT47ESoxH-40" value="Description" style="text;strokeColor=none;align=center;fillColor=none;html=1;verticalAlign=middle;whiteSpace=wrap;rounded=0;fontSize=24;" vertex="1" parent="G1v5_FvtIPSsT47ESoxH-38">
          <mxGeometry x="7" y="43" width="126.2" height="30" as="geometry" />
        </mxCell>
        <mxCell id="G1v5_FvtIPSsT47ESoxH-41" value="Cost" style="text;strokeColor=none;align=center;fillColor=none;html=1;verticalAlign=middle;whiteSpace=wrap;rounded=0;fontSize=24;" vertex="1" parent="G1v5_FvtIPSsT47ESoxH-38">
          <mxGeometry x="1222" width="75.2" height="30" as="geometry" />
        </mxCell>
        <mxCell id="G1v5_FvtIPSsT47ESoxH-42" value="" style="group" vertex="1" connectable="0" parent="TidTo2rOgOH8y78XN5G_-77">
          <mxGeometry x="22.799999999999997" y="245.91" width="1297.2" height="73" as="geometry" />
        </mxCell>
        <mxCell id="G1v5_FvtIPSsT47ESoxH-43" value="Food Title" style="text;strokeColor=none;align=center;fillColor=none;html=1;verticalAlign=middle;whiteSpace=wrap;rounded=0;fontSize=24;" vertex="1" parent="G1v5_FvtIPSsT47ESoxH-42">
          <mxGeometry y="4" width="126.2" height="30" as="geometry" />
        </mxCell>
        <mxCell id="G1v5_FvtIPSsT47ESoxH-44" value="Description" style="text;strokeColor=none;align=center;fillColor=none;html=1;verticalAlign=middle;whiteSpace=wrap;rounded=0;fontSize=24;" vertex="1" parent="G1v5_FvtIPSsT47ESoxH-42">
          <mxGeometry x="7" y="43" width="126.2" height="30" as="geometry" />
        </mxCell>
        <mxCell id="G1v5_FvtIPSsT47ESoxH-45" value="Cost" style="text;strokeColor=none;align=center;fillColor=none;html=1;verticalAlign=middle;whiteSpace=wrap;rounded=0;fontSize=24;" vertex="1" parent="G1v5_FvtIPSsT47ESoxH-42">
          <mxGeometry x="1222" width="75.2" height="30" as="geometry" />
        </mxCell>
        <mxCell id="TidTo2rOgOH8y78XN5G_-135" value="" style="html=1;verticalLabelPosition=bottom;align=center;labelBackgroundColor=#ffffff;verticalAlign=top;strokeWidth=2;strokeColor=#0080F0;shadow=0;dashed=0;shape=mxgraph.ios7.icons.shopping_cart;" parent="TidTo2rOgOH8y78XN5G_-71" vertex="1">
          <mxGeometry x="1403.035" y="19.999610511778577" width="41.96232311320755" height="36.74428801924554" as="geometry" />
        </mxCell>
        <mxCell id="G1v5_FvtIPSsT47ESoxH-5" value="" style="group" vertex="1" connectable="0" parent="TidTo2rOgOH8y78XN5G_-71">
          <mxGeometry x="-21.667169811320758" y="77.83466932428007" width="128.86264150943398" height="737.7676653275967" as="geometry" />
        </mxCell>
        <mxCell id="TidTo2rOgOH8y78XN5G_-90" value="" style="rounded=0;whiteSpace=wrap;html=1;" parent="G1v5_FvtIPSsT47ESoxH-5" vertex="1">
          <mxGeometry x="22.468641273584907" width="83.9246462264151" height="737.7676653275967" as="geometry" />
        </mxCell>
        <mxCell id="G1v5_FvtIPSsT47ESoxH-4" value="" style="group" vertex="1" connectable="0" parent="G1v5_FvtIPSsT47ESoxH-5">
          <mxGeometry y="9.323085647919875" width="128.86264150943398" height="714.6424718541671" as="geometry" />
        </mxCell>
        <mxCell id="TidTo2rOgOH8y78XN5G_-124" value="" style="group" parent="G1v5_FvtIPSsT47ESoxH-4" vertex="1" connectable="0">
          <mxGeometry x="22.468641273584907" y="67.04739533325713" width="100.48684551886792" height="344.38764065096797" as="geometry" />
        </mxCell>
        <mxCell id="ef_NKi3vWta91qS7X8Y2-3" value="History" style="text;strokeColor=none;align=center;fillColor=none;html=1;verticalAlign=middle;whiteSpace=wrap;rounded=0;fontSize=18;" parent="TidTo2rOgOH8y78XN5G_-124" vertex="1">
          <mxGeometry x="7.0133207547169825" y="94.43641232744518" width="69.9051320754717" height="46.44850764847445" as="geometry" />
        </mxCell>
        <mxCell id="G1v5_FvtIPSsT47ESoxH-2" value="" style="group" vertex="1" connectable="0" parent="TidTo2rOgOH8y78XN5G_-124">
          <mxGeometry width="82.5259021226415" height="344.38764065096797" as="geometry" />
        </mxCell>
        <mxCell id="TidTo2rOgOH8y78XN5G_-92" value="" style="line;strokeWidth=2;html=1;" parent="G1v5_FvtIPSsT47ESoxH-2" vertex="1">
          <mxGeometry x="1.398744103773585" y="70.33289012624999" width="81.12715801886792" height="14.409524713429624" as="geometry" />
        </mxCell>
        <mxCell id="TidTo2rOgOH8y78XN5G_-117" value="" style="line;strokeWidth=2;html=1;" parent="G1v5_FvtIPSsT47ESoxH-2" vertex="1">
          <mxGeometry y="151.30000949101105" width="81.12715801886792" height="14.409524713429624" as="geometry" />
        </mxCell>
        <mxCell id="TidTo2rOgOH8y78XN5G_-120" value="" style="line;strokeWidth=2;html=1;" parent="G1v5_FvtIPSsT47ESoxH-2" vertex="1">
          <mxGeometry x="1.398744103773585" y="240.6390627142747" width="81.12715801886792" height="14.409524713429624" as="geometry" />
        </mxCell>
        <mxCell id="TidTo2rOgOH8y78XN5G_-121" value="" style="line;strokeWidth=2;html=1;" parent="G1v5_FvtIPSsT47ESoxH-2" vertex="1">
          <mxGeometry x="1.398744103773585" y="329.97811593753835" width="81.12715801886792" height="14.409524713429624" as="geometry" />
        </mxCell>
        <mxCell id="TidTo2rOgOH8y78XN5G_-122" value="" style="line;strokeWidth=2;html=1;" parent="G1v5_FvtIPSsT47ESoxH-2" vertex="1">
          <mxGeometry x="1.398744103773585" width="81.12715801886792" height="14.409524713429624" as="geometry" />
        </mxCell>
        <mxCell id="TidTo2rOgOH8y78XN5G_-125" value="Navigation&lt;div&gt;bar&lt;/div&gt;" style="text;strokeColor=none;fillColor=none;html=1;fontSize=24;fontStyle=1;verticalAlign=middle;align=center;rotation=-90;" parent="G1v5_FvtIPSsT47ESoxH-4" vertex="1">
          <mxGeometry x="-14.598968396226402" y="489.11308896439766" width="158.0580837264151" height="53.805165279946216" as="geometry" />
        </mxCell>
        <mxCell id="ef_NKi3vWta91qS7X8Y2-2" value="Profile" style="text;strokeColor=none;align=center;fillColor=none;html=1;verticalAlign=middle;whiteSpace=wrap;rounded=0;fontSize=18;" parent="G1v5_FvtIPSsT47ESoxH-4" vertex="1">
          <mxGeometry x="25.490641273584906" y="250.94191393715386" width="77.88777358490566" height="39.5242178639595" as="geometry" />
        </mxCell>
        <mxCell id="ef_NKi3vWta91qS7X8Y2-4" value="Home" style="text;strokeColor=none;align=center;fillColor=none;html=1;verticalAlign=middle;whiteSpace=wrap;rounded=0;fontSize=18;" parent="G1v5_FvtIPSsT47ESoxH-4" vertex="1">
          <mxGeometry x="14.086867688679247" y="88.29081161633283" width="100.69532075471697" height="41.80133329645099" as="geometry" />
        </mxCell>
        <mxCell id="ef_NKi3vWta91qS7X8Y2-5" value="Modify" style="text;strokeColor=none;align=center;fillColor=none;html=1;verticalAlign=middle;whiteSpace=wrap;rounded=0;fontSize=18;" parent="G1v5_FvtIPSsT47ESoxH-4" vertex="1">
          <mxGeometry width="128.86264150943398" height="61.575060164310806" as="geometry" />
        </mxCell>
        <mxCell id="Tao8DP2jIyeEFqwNxk7D-1" value="Open/Close" style="text;strokeColor=none;align=center;fillColor=none;html=1;verticalAlign=middle;whiteSpace=wrap;rounded=0;fontSize=20;" parent="G1v5_FvtIPSsT47ESoxH-4" vertex="1">
          <mxGeometry x="30.220000000000013" y="630.8539182871843" width="68.42264150943397" height="34.85380764017593" as="geometry" />
        </mxCell>
        <mxCell id="TidTo2rOgOH8y78XN5G_-128" value="" style="verticalLabelPosition=bottom;verticalAlign=top;html=1;shape=mxgraph.basic.x" parent="G1v5_FvtIPSsT47ESoxH-4" vertex="1">
          <mxGeometry x="47.3370641509434" y="680.8110425714365" width="34.188513207547174" height="33.83142928273077" as="geometry" />
        </mxCell>
        <mxCell id="ef_NKi3vWta91qS7X8Y2-1" value="Settings" style="text;strokeColor=none;align=center;fillColor=none;html=1;verticalAlign=middle;whiteSpace=wrap;rounded=0;fontSize=18;" parent="G1v5_FvtIPSsT47ESoxH-4" vertex="1">
          <mxGeometry x="22.468641273584907" y="338.0648151017136" width="88.15116981132076" height="42.99798069209703" as="geometry" />
        </mxCell>
        <mxCell id="G1v5_FvtIPSsT47ESoxH-8" value="" style="group" vertex="1" connectable="0" parent="TidTo2rOgOH8y78XN5G_-71">
          <mxGeometry x="9.12622617924529" y="6.484286121043323" width="95.11459905660378" height="57.176994062888745" as="geometry" />
        </mxCell>
        <mxCell id="TidTo2rOgOH8y78XN5G_-129" value="" style="rounded=1;whiteSpace=wrap;html=1;" parent="G1v5_FvtIPSsT47ESoxH-8" vertex="1">
          <mxGeometry width="95.11459905660378" height="57.176994062888745" as="geometry" />
        </mxCell>
        <mxCell id="TidTo2rOgOH8y78XN5G_-131" value="Log" style="text;strokeColor=none;fillColor=none;html=1;fontSize=24;fontStyle=1;verticalAlign=middle;align=center;" parent="G1v5_FvtIPSsT47ESoxH-8" vertex="1">
          <mxGeometry x="7.926216588050314" y="9.529499010481457" width="79.26216588050315" height="38.11799604192583" as="geometry" />
        </mxCell>
        <mxCell id="G1v5_FvtIPSsT47ESoxH-28" value="" style="group" vertex="1" connectable="0" parent="TidTo2rOgOH8y78XN5G_-71">
          <mxGeometry x="77.55" y="80" width="1387.58" height="366.76" as="geometry" />
        </mxCell>
        <mxCell id="G1v5_FvtIPSsT47ESoxH-9" value="" style="group" vertex="1" connectable="0" parent="G1v5_FvtIPSsT47ESoxH-28">
          <mxGeometry width="1372.0030073654057" height="366.75999999999993" as="geometry" />
        </mxCell>
        <mxCell id="TidTo2rOgOH8y78XN5G_-75" value="" style="group" parent="G1v5_FvtIPSsT47ESoxH-9" vertex="1" connectable="0">
          <mxGeometry width="1372.0030073654057" height="195.13" as="geometry" />
        </mxCell>
        <mxCell id="TidTo2rOgOH8y78XN5G_-67" value="" style="shape=ext;double=1;rounded=1;whiteSpace=wrap;html=1;" parent="TidTo2rOgOH8y78XN5G_-75" vertex="1">
          <mxGeometry x="41.98" y="18" width="1330.02" height="177.13" as="geometry" />
        </mxCell>
        <mxCell id="TidTo2rOgOH8y78XN5G_-66" value="Promotion Image" style="text;strokeColor=none;fillColor=none;html=1;fontSize=30;fontStyle=1;verticalAlign=middle;align=center;" parent="TidTo2rOgOH8y78XN5G_-75" vertex="1">
          <mxGeometry x="767.5300000000001" y="81.18" width="604.47" height="50.77" as="geometry" />
        </mxCell>
        <mxCell id="G1v5_FvtIPSsT47ESoxH-48" value="Promotion Title" style="text;strokeColor=none;fillColor=none;html=1;fontSize=30;fontStyle=1;verticalAlign=middle;align=center;" vertex="1" parent="TidTo2rOgOH8y78XN5G_-75">
          <mxGeometry x="41.97999999999999" y="81.18" width="604.47" height="50.77" as="geometry" />
        </mxCell>
        <mxCell id="5HUyDwjAsFl6zSztykZO-1" value="" style="group" parent="G1v5_FvtIPSsT47ESoxH-9" vertex="1" connectable="0">
          <mxGeometry x="33.07101588632197" y="296.64242974275516" width="552.7079058490921" height="70.1175702572448" as="geometry" />
        </mxCell>
        <mxCell id="5HUyDwjAsFl6zSztykZO-3" value="" style="group" parent="5HUyDwjAsFl6zSztykZO-1" vertex="1" connectable="0">
          <mxGeometry width="552.7079058490921" height="70.11757025724484" as="geometry" />
        </mxCell>
        <mxCell id="TidTo2rOgOH8y78XN5G_-80" value="" style="ellipse;whiteSpace=wrap;html=1;shadow=0;" parent="5HUyDwjAsFl6zSztykZO-3" vertex="1">
          <mxGeometry width="101.49380737526398" height="70.11757025724484" as="geometry" />
        </mxCell>
        <mxCell id="TidTo2rOgOH8y78XN5G_-84" value="" style="ellipse;whiteSpace=wrap;html=1;shadow=0;" parent="5HUyDwjAsFl6zSztykZO-3" vertex="1">
          <mxGeometry x="225.6778001877711" width="101.49380737526398" height="70.11757025724484" as="geometry" />
        </mxCell>
        <mxCell id="TidTo2rOgOH8y78XN5G_-83" value="" style="ellipse;whiteSpace=wrap;html=1;shadow=0;" parent="5HUyDwjAsFl6zSztykZO-3" vertex="1">
          <mxGeometry x="339.192382318147" width="101.49380737526398" height="70.11757025724484" as="geometry" />
        </mxCell>
        <mxCell id="TidTo2rOgOH8y78XN5G_-82" value="" style="ellipse;whiteSpace=wrap;html=1;shadow=0;" parent="5HUyDwjAsFl6zSztykZO-3" vertex="1">
          <mxGeometry x="114.86594620335657" width="101.49380737526398" height="70.11757025724484" as="geometry" />
        </mxCell>
        <mxCell id="TidTo2rOgOH8y78XN5G_-81" value="" style="ellipse;whiteSpace=wrap;html=1;shadow=0;" parent="5HUyDwjAsFl6zSztykZO-3" vertex="1">
          <mxGeometry x="451.3556003755422" width="101.49380737526398" height="70.11757025724484" as="geometry" />
        </mxCell>
        <mxCell id="TidTo2rOgOH8y78XN5G_-86" value="&lt;div&gt;Soup/&lt;/div&gt;&lt;div&gt;Salad&lt;/div&gt;" style="text;strokeColor=none;fillColor=none;html=1;fontSize=20;fontStyle=1;verticalAlign=middle;align=center;" parent="5HUyDwjAsFl6zSztykZO-3" vertex="1">
          <mxGeometry x="206.42015812355655" y="16.126237716717796" width="139.87899340056046" height="37.8765725730738" as="geometry" />
        </mxCell>
        <mxCell id="Tao8DP2jIyeEFqwNxk7D-3" value="Chicken" style="text;strokeColor=none;fillColor=none;html=1;fontSize=20;fontStyle=1;verticalAlign=middle;align=center;" parent="5HUyDwjAsFl6zSztykZO-3" vertex="1">
          <mxGeometry x="434.4847259547818" y="16.126237716717796" width="139.87899340056046" height="37.8765725730738" as="geometry" />
        </mxCell>
        <mxCell id="Tao8DP2jIyeEFqwNxk7D-4" value="&lt;div&gt;Asian&lt;/div&gt;&lt;div&gt;Classic&lt;/div&gt;" style="text;strokeColor=none;fillColor=none;html=1;fontSize=20;fontStyle=1;verticalAlign=middle;align=center;" parent="5HUyDwjAsFl6zSztykZO-3" vertex="1">
          <mxGeometry x="319.9335692037114" y="16.126237716717796" width="139.87899340056046" height="37.8765725730738" as="geometry" />
        </mxCell>
        <mxCell id="Tao8DP2jIyeEFqwNxk7D-5" value="Starter" style="text;strokeColor=none;fillColor=none;html=1;fontSize=20;fontStyle=1;verticalAlign=middle;align=center;" parent="5HUyDwjAsFl6zSztykZO-3" vertex="1">
          <mxGeometry x="95.59804350863347" y="16.126237716717796" width="139.87899340056046" height="37.8765725730738" as="geometry" />
        </mxCell>
        <mxCell id="Tao8DP2jIyeEFqwNxk7D-6" value="Cakes" style="text;strokeColor=none;fillColor=none;html=1;fontSize=20;fontStyle=1;verticalAlign=middle;align=center;" parent="5HUyDwjAsFl6zSztykZO-3" vertex="1">
          <mxGeometry x="-19.261015804137198" y="16.126237716717796" width="139.87899340056046" height="37.8765725730738" as="geometry" />
        </mxCell>
        <mxCell id="Tao8DP2jIyeEFqwNxk7D-10" value="" style="group" parent="G1v5_FvtIPSsT47ESoxH-9" vertex="1" connectable="0">
          <mxGeometry x="39.91329503521617" y="207.74726168867744" width="1330.0029153031994" height="41.31989735244414" as="geometry" />
        </mxCell>
        <mxCell id="Tao8DP2jIyeEFqwNxk7D-7" value="" style="rounded=1;whiteSpace=wrap;html=1;" parent="Tao8DP2jIyeEFqwNxk7D-10" vertex="1">
          <mxGeometry width="1330.0029153031994" height="41.31538331762623" as="geometry" />
        </mxCell>
        <mxCell id="Tao8DP2jIyeEFqwNxk7D-8" value="Search..." style="text;strokeColor=none;align=center;fillColor=none;html=1;verticalAlign=middle;whiteSpace=wrap;rounded=0;fontSize=20;" parent="Tao8DP2jIyeEFqwNxk7D-10" vertex="1">
          <mxGeometry x="17.105697872235506" y="3.4433247793703448" width="68.42279148894202" height="34.433247793703444" as="geometry" />
        </mxCell>
        <mxCell id="Tao8DP2jIyeEFqwNxk7D-9" value="" style="image;aspect=fixed;html=1;points=[];align=center;fontSize=12;image=img/lib/azure2/general/Search.svg;" parent="Tao8DP2jIyeEFqwNxk7D-10" vertex="1">
          <mxGeometry x="1282.5411131559765" y="5.210455179648083" width="28.759884553594308" height="29.20726053553911" as="geometry" />
        </mxCell>
        <mxCell id="G1v5_FvtIPSsT47ESoxH-27" value="" style="group" vertex="1" connectable="0" parent="G1v5_FvtIPSsT47ESoxH-28">
          <mxGeometry x="577.1576500078074" y="293.1991049633848" width="810.4223499921924" height="73.56089503661515" as="geometry" />
        </mxCell>
        <mxCell id="G1v5_FvtIPSsT47ESoxH-11" value="" style="ellipse;whiteSpace=wrap;html=1;" vertex="1" parent="G1v5_FvtIPSsT47ESoxH-27">
          <mxGeometry x="19.265672122873408" y="3.4433247793703448" width="101.3523054735499" height="70.11757025724484" as="geometry" />
        </mxCell>
        <mxCell id="G1v5_FvtIPSsT47ESoxH-12" value="" style="ellipse;whiteSpace=wrap;html=1;" vertex="1" parent="G1v5_FvtIPSsT47ESoxH-27">
          <mxGeometry x="131.0228982214787" y="3.4433247793703448" width="101.3523054735499" height="70.11757025724484" as="geometry" />
        </mxCell>
        <mxCell id="G1v5_FvtIPSsT47ESoxH-13" value="" style="ellipse;whiteSpace=wrap;html=1;" vertex="1" parent="G1v5_FvtIPSsT47ESoxH-27">
          <mxGeometry x="242.78012432008398" width="101.3523054735499" height="70.11757025724484" as="geometry" />
        </mxCell>
        <mxCell id="G1v5_FvtIPSsT47ESoxH-14" value="" style="ellipse;whiteSpace=wrap;html=1;" vertex="1" parent="G1v5_FvtIPSsT47ESoxH-27">
          <mxGeometry x="354.53735041868924" width="101.3523054735499" height="70.11757025724484" as="geometry" />
        </mxCell>
        <mxCell id="G1v5_FvtIPSsT47ESoxH-15" value="" style="ellipse;whiteSpace=wrap;html=1;" vertex="1" parent="G1v5_FvtIPSsT47ESoxH-27">
          <mxGeometry x="466.29457651729456" width="101.3523054735499" height="70.11757025724484" as="geometry" />
        </mxCell>
        <mxCell id="G1v5_FvtIPSsT47ESoxH-17" value="" style="ellipse;whiteSpace=wrap;html=1;" vertex="1" parent="G1v5_FvtIPSsT47ESoxH-27">
          <mxGeometry x="578.0518026158999" width="101.3523054735499" height="70.11757025724484" as="geometry" />
        </mxCell>
        <mxCell id="G1v5_FvtIPSsT47ESoxH-18" value="" style="ellipse;whiteSpace=wrap;html=1;" vertex="1" parent="G1v5_FvtIPSsT47ESoxH-27">
          <mxGeometry x="689.8090287145052" width="101.3523054735499" height="70.11757025724484" as="geometry" />
        </mxCell>
        <mxCell id="G1v5_FvtIPSsT47ESoxH-19" value="Pasta" style="text;strokeColor=none;fillColor=none;html=1;fontSize=20;fontStyle=1;verticalAlign=middle;align=center;" vertex="1" parent="G1v5_FvtIPSsT47ESoxH-27">
          <mxGeometry y="19.569562496088135" width="139.87899340056046" height="37.87657257307379" as="geometry" />
        </mxCell>
        <mxCell id="G1v5_FvtIPSsT47ESoxH-20" value="Western" style="text;strokeColor=none;fillColor=none;html=1;fontSize=20;fontStyle=1;verticalAlign=middle;align=center;" vertex="1" parent="G1v5_FvtIPSsT47ESoxH-27">
          <mxGeometry x="111.75722609860529" y="19.569562496088135" width="139.87899340056046" height="37.87657257307379" as="geometry" />
        </mxCell>
        <mxCell id="G1v5_FvtIPSsT47ESoxH-21" value="&lt;div&gt;Kid&#39;s&lt;/div&gt;&lt;div&gt;Club&lt;/div&gt;" style="text;strokeColor=none;fillColor=none;html=1;fontSize=20;fontStyle=1;verticalAlign=middle;align=center;" vertex="1" parent="G1v5_FvtIPSsT47ESoxH-27">
          <mxGeometry x="223.51445219721057" y="16.126237716717796" width="139.87899340056046" height="37.87657257307379" as="geometry" />
        </mxCell>
        <mxCell id="G1v5_FvtIPSsT47ESoxH-22" value="&lt;div&gt;Pastry/&lt;/div&gt;&lt;div&gt;Dessert&lt;br&gt;&lt;/div&gt;" style="text;strokeColor=none;fillColor=none;html=1;fontSize=20;fontStyle=1;verticalAlign=middle;align=center;" vertex="1" parent="G1v5_FvtIPSsT47ESoxH-27">
          <mxGeometry x="335.27167829581583" y="16.126237716717796" width="139.87899340056046" height="37.87657257307379" as="geometry" />
        </mxCell>
        <mxCell id="G1v5_FvtIPSsT47ESoxH-23" value="&lt;div&gt;Fresh&lt;/div&gt;&lt;div&gt;Juices&lt;br&gt;&lt;/div&gt;" style="text;strokeColor=none;fillColor=none;html=1;fontSize=20;fontStyle=1;verticalAlign=middle;align=center;" vertex="1" parent="G1v5_FvtIPSsT47ESoxH-27">
          <mxGeometry x="447.02890439442115" y="16.126237716717796" width="139.87899340056046" height="37.87657257307379" as="geometry" />
        </mxCell>
        <mxCell id="G1v5_FvtIPSsT47ESoxH-24" value="&lt;div style=&quot;font-size: 18px;&quot;&gt;&lt;font style=&quot;font-size: 18px;&quot;&gt;Coffee/&lt;/font&gt;&lt;/div&gt;&lt;div style=&quot;font-size: 18px;&quot;&gt;&lt;font style=&quot;font-size: 18px;&quot;&gt;IceBlended&lt;br&gt;&lt;/font&gt;&lt;/div&gt;" style="text;strokeColor=none;fillColor=none;html=1;fontSize=20;fontStyle=1;verticalAlign=middle;align=center;" vertex="1" parent="G1v5_FvtIPSsT47ESoxH-27">
          <mxGeometry x="558.7861304930266" y="16.126237716717796" width="139.87899340056046" height="37.87657257307379" as="geometry" />
        </mxCell>
        <mxCell id="G1v5_FvtIPSsT47ESoxH-25" value="Chicken" style="text;strokeColor=none;fillColor=none;html=1;fontSize=20;fontStyle=1;verticalAlign=middle;align=center;" vertex="1" parent="G1v5_FvtIPSsT47ESoxH-27">
          <mxGeometry x="670.5433565916318" y="16.126237716717796" width="139.87899340056046" height="37.87657257307379" as="geometry" />
        </mxCell>
        <mxCell id="Tao8DP2jIyeEFqwNxk7D-11" value="&lt;div style=&quot;font-size: 25px;&quot;&gt;Recommended food for you&lt;br style=&quot;font-size: 25px;&quot;&gt;&lt;/div&gt;" style="text;strokeColor=none;align=center;fillColor=none;html=1;verticalAlign=middle;whiteSpace=wrap;rounded=0;fontSize=25;fontStyle=5" parent="TidTo2rOgOH8y78XN5G_-71" vertex="1">
          <mxGeometry x="98" y="338" width="355" height="34.43" as="geometry" />
        </mxCell>
        <mxCell id="G1v5_FvtIPSsT47ESoxH-47" value="" style="html=1;verticalLabelPosition=bottom;labelBackgroundColor=#ffffff;verticalAlign=top;shadow=0;dashed=0;strokeWidth=2;shape=mxgraph.ios7.misc.scroll_(horizontal);fillColor=#a0a0a0;" vertex="1" parent="TidTo2rOgOH8y78XN5G_-71">
          <mxGeometry x="111" y="452" width="1337" height="6" as="geometry" />
        </mxCell>
      </root>
    </mxGraphModel>
  </diagram>
</mxfile>
